<svg xmlns="http://www.w3.org/2000/svg" width="1536" height="1024" viewBox="340 180 860 520"><path fill="#f5c518" fill-rule="evenodd" d="M836.049 200.027c-1.348 2.185-2.811 3.973-3.25 3.973s-.799.679-.799 1.509-1.35 2.922-3 4.648c-1.65 1.727-3 3.748-3 4.491 0 .744-.344 1.352-.764 1.352s-1.876 1.8-3.236 4-2.786 4-3.169 4-.981.897-1.329 1.994-1.183 2.559-1.854 3.25c-.672.691-3.23 4.181-5.685 7.756s-4.688 6.725-4.963 7-2.511 3.425-4.969 7-5.271 7.372-6.25 8.439c-.98 1.066-1.781 2.528-1.781 3.25 0 .721-.374 1.311-.831 1.311s-1.467 1.238-2.243 2.75c-.777 1.512-2.203 3.478-3.169 4.367-.966.89-1.757 2.042-1.757 2.562 0 .519-.8 1.816-1.777 2.882-.978 1.067-2.875 3.514-4.217 5.439s-3.017 4.095-3.723 4.821c-.706.727-1.283 1.67-1.283 2.095s-1.124 2.08-2.499 3.678c-1.374 1.599-2.499 3.469-2.5 4.156 0 .688-.345 1.25-.765 1.25s-1.876 1.8-3.236 4-2.761 4-3.115 4c-.353 0-1.202 1.35-1.885 3s-1.541 3-1.906 3c-.364 0-1.396 1.238-2.292 2.75s-2.792 4.1-4.214 5.75-2.586 3.563-2.587 4.25c0 .688-.354 1.25-.785 1.25s-1.573 1.334-2.535 2.964-2.303 3.542-2.979 4.25c-.675.707-3.246 4.321-5.715 8.031s-4.824 6.747-5.237 6.75-.75.595-.75 1.316-.788 2.184-1.75 3.25c-.962 1.067-2.875 3.623-4.25 5.682s-2.837 3.746-3.25 3.75-.75.597-.75 1.318-.809 2.184-1.799 3.25c-.989 1.067-3.77 4.864-6.179 8.439s-5.2 7.228-6.201 8.117c-1.002.89-1.821 2.352-1.821 3.25s-.337 1.636-.75 1.64-1.874 1.691-3.249 3.75-3.061 4.338-3.75 5.064c-.688.727-1.251 1.692-1.251 2.145 0 .452-1.35 2.268-3 4.034s-3 3.544-3 3.95-1.124 2.046-2.499 3.644-2.499 3.262-2.5 3.698-.927 1.785-2.059 3l-2.058 2.208 28.058.266 28.058.265v2.938c0 1.615-.401 3.971-.891 5.234s-1.886 5.672-3.103 9.797c-1.216 4.125-2.615 8.281-3.109 9.236s-.897 2.868-.897 4.25-.45 2.514-1 2.514-1 .981-1 2.179c0 2.302-1.649 8.14-3.123 11.057-.482.955-.877 2.649-.877 3.764s-.411 2.809-.914 3.764c-1.214 2.307-7.098 21.389-7.091 23 .003.695-.399 2.045-.892 3-.494.955-1.844 4.998-3 8.986l-4.206 14.5c-1.156 3.987-2.506 8.031-3 8.986-.493.955-.897 2.616-.897 3.691s-.4 2.202-.89 2.505c-.489.302-1.164 2.129-1.5 4.059l-1.219 7.009c-.336 1.925-1.011 3.5-1.5 3.5s-.891 1.35-.891 3-.45 3-1 3-1 .981-1 2.179c0 2.001-1.15 6.304-3.025 11.321-.411 1.1-1.292 4.025-1.958 6.5-.667 2.475-1.618 5.281-2.114 6.236-.497.955-.903 3.066-.903 4.691s-.45 3.233-1 3.573-1 1.716-1 3.059.45 2.441 1 2.441 1-.608 1-1.352c0-.743 1.35-2.764 3-4.491s3-3.818 3-4.648.374-1.509.831-1.509 1.47-1.237 2.25-2.75 2.207-3.622 3.169-4.689c.962-1.066 1.75-2.491 1.75-3.166 0-.676.351-1.378.78-1.562.43-.183 6.357-8.658 13.172-18.833s12.764-18.65 13.22-18.833c.455-.184.828-.992.828-1.796s1.125-2.587 2.5-3.962 2.5-2.859 2.5-3.299 1.124-2.106 2.499-3.704 2.499-3.468 2.5-4.156.421-1.25.934-1.25 1.2-.845 1.528-1.878 1.708-3.17 3.066-4.75c1.359-1.579 2.471-3.434 2.472-4.122s.396-1.25.88-1.25c.483 0 1.438-1.35 2.121-3s1.638-3 2.121-3 .879-.59.879-1.311c0-.722.9-2.278 2-3.459 1.1-1.18 2.001-2.503 2.001-2.938.001-.436 1.126-2.099 2.5-3.698S761 487.37 761 486.98s1.273-2.167 2.829-3.949 3.693-4.881 4.75-6.886 2.709-4.517 3.671-5.584 1.75-2.429 1.75-3.029.9-1.739 2-2.532 2-2.242 2-3.221c0-.978.42-1.779.933-1.779s1.217-.897 1.565-1.994 1.166-2.559 1.818-3.25c1.656-1.757 11.684-16.585 11.684-17.278 0-.313 1.09-1.659 2.422-2.991s2.713-3.337 3.068-4.455 1.064-2.032 1.577-2.032.933-.863.933-1.917.377-2.066.839-2.25c.461-.183 4.603-5.958 9.205-12.833s8.921-13.065 9.596-13.756 1.514-2.153 1.862-3.25 1.052-1.994 1.565-1.994.933-.59.933-1.311c0-.722.945-2.326 2.101-3.567 1.155-1.24 1.792-2.562 1.416-2.938s-12.572-.684-27.101-.684H776v-2.75c0-1.512.45-2.75 1-2.75s1-1.312 1-2.917.338-3.066.752-3.25c.92-.408 5.248-12.963 5.248-15.225 0-.896.868-3.537 1.928-5.869s3.326-8.514 5.035-13.739 3.541-10.281 4.072-11.236.965-2.643.965-3.75.45-2.014 1-2.014 1-1.035 1-2.3.358-2.727.796-3.25c.438-.522 1.367-2.75 2.066-4.95s1.628-4.9 2.066-6 1.337-3.8 2-6c.662-2.2 1.573-4.9 2.024-6s1.419-4.025 2.152-6.5c.732-2.475 1.86-5.544 2.506-6.82.646-1.275 2.893-7.575 4.993-14s4.174-11.83 4.608-12.013c.434-.184.789-1.62.789-3.191 0-1.572.45-3.136 1-3.476s1-1.716 1-3.059.45-2.441 1-2.441 1-1.098 1-2.441.45-2.719 1-3.059 1-1.626 1-2.859.379-2.668.842-3.191c.464-.522 1.926-4.435 3.25-8.695s2.745-7.747 3.158-7.75.75-1.103.75-2.446.45-2.719 1-3.059 1-1.69 1-3 .45-2.66 1-3c1.156-.715 1.369-4.513.25-4.473-.413.015-1.853 1.815-3.201 4M540.481 316l.019 35.5 23.5.027 23.5.027-23.237-.295-23.238-.295-.281-35.232-.282-35.232zm107.004 90c0 69.575.119 98.037.265 63.25s.146-91.713 0-126.5-.265-6.325-.265 63.25m214.996-90 .019 35.5 31.746.264 31.745.264.255 111.236.254 111.236 28.434.266c15.639.146 28.779-.079 29.201-.5s-12.259-.64-28.179-.486l-28.947.279-.255-111.279-.254-111.28-31.737-.264-31.738-.264-.281-35.236-.282-35.236zm138.769 35.748c9.212.165 24.287.165 33.5 0s1.675-.3-16.75-.3-25.962.135-16.75.3M588.467 424.5c0 30.8.127 43.544.282 28.321s.156-40.423 0-56c-.155-15.577-.282-3.121-.282 27.679M474.75 474.747c7.288.171 19.212.171 26.5 0 7.288-.17 1.325-.31-13.25-.31s-20.538.14-13.25.31M588.349 496c0 4.675.173 6.587.383 4.25s.211-6.163 0-8.5c-.21-2.337-.383-.425-.383 4.25m-64.599 78.749c15.538.155 40.963.155 56.5 0 15.538-.155 2.825-.281-28.25-.281s-43.787.126-28.25.281M402.432 657c0 13.475.142 18.987.315 12.25s.173-17.763 0-24.5-.315-1.225-.315 12.25m150 0c0 13.475.142 18.987.315 12.25s.173-17.763 0-24.5-.315-1.225-.315 12.25m31.374-9.998c-.168 7.151.031 13.001.444 13S585 654.15 585 647s-.2-13-.444-13c-.245 0-.582 5.851-.75 13.002M907.415 652c0 10.175.149 14.337.33 9.25s.182-13.413 0-18.5c-.181-5.087-.33-.925-.33 9.25m114.016 5.5c.001 13.2.143 18.462.316 11.693s.173-17.569-.001-24-.315-.893-.315 12.307m-262.003.5c0 12.375.143 17.438.319 11.25.175-6.187.175-16.312 0-22.5-.176-6.187-.319-1.125-.319 11.25m322.995 2.5c.001 11.55.147 16.138.324 10.196s.176-15.393-.002-21c-.178-5.608-.323-.746-.322 10.804m-599.143-6.764c2.629.207 6.679.204 9-.005 2.321-.21.17-.379-4.78-.376s-6.849.175-4.22.381m484.888 3.457-.168 4.692-4.25.383-4.25.383 4.281.174c4.889.2 5.554-.668 4.954-6.47-.384-3.707-.405-3.675-.567.838M851.389 668.5c.001 7.15.161 9.944.353 6.208.193-3.735.192-9.585-.003-13-.194-3.414-.352-.358-.35 6.792m218.96-4.5c0 4.675.173 6.587.383 4.25s.211-6.163 0-8.5c-.21-2.337-.383-.425-.383 4.25m-694.099-1.261c3.163.198 8.337.198 11.5 0s.575-.361-5.75-.361-8.913.163-5.75.361m150.037.001c3.182.199 8.132.197 11-.004 2.867-.201.263-.364-5.787-.362s-8.396.167-5.213.366M649.349 672c0 4.675.173 6.587.383 4.25s.211-6.163 0-8.5c-.21-2.337-.383-.425-.383 4.25"/><path fill="none" d="M0 512.001v512l768.25-.25 768.25-.251.251-511.75.251-511.75H0zm.496.499c0 281.6.114 396.651.254 255.668.14-140.982.14-371.382 0-512C.61 115.551.496 230.9.496 512.5m835.553-312.473c-1.348 2.185-2.811 3.973-3.25 3.973s-.799.679-.799 1.509-1.35 2.922-3 4.648c-1.65 1.727-3 3.748-3 4.491 0 .744-.344 1.352-.764 1.352s-1.876 1.8-3.236 4-2.786 4-3.169 4-.981.897-1.329 1.994-1.183 2.559-1.854 3.25c-.672.691-3.23 4.181-5.685 7.756s-4.688 6.725-4.963 7-2.511 3.425-4.969 7-5.271 7.372-6.25 8.439c-.98 1.066-1.781 2.528-1.781 3.25 0 .721-.374 1.311-.831 1.311s-1.467 1.238-2.243 2.75c-.777 1.512-2.203 3.478-3.169 4.367-.966.89-1.757 2.042-1.757 2.562 0 .519-.8 1.816-1.777 2.882-.978 1.067-2.875 3.514-4.217 5.439s-3.017 4.095-3.723 4.821c-.706.727-1.283 1.67-1.283 2.095s-1.124 2.08-2.499 3.678c-1.374 1.599-2.499 3.469-2.5 4.156 0 .688-.345 1.25-.765 1.25s-1.876 1.8-3.236 4-2.761 4-3.115 4c-.353 0-1.202 1.35-1.885 3s-1.541 3-1.906 3c-.364 0-1.396 1.238-2.292 2.75s-2.792 4.1-4.214 5.75-2.586 3.563-2.587 4.25c0 .688-.354 1.25-.785 1.25s-1.573 1.334-2.535 2.964-2.303 3.542-2.979 4.25c-.675.707-3.246 4.321-5.715 8.031s-4.824 6.747-5.237 6.75-.75.595-.75 1.316-.788 2.184-1.75 3.25c-.962 1.067-2.875 3.623-4.25 5.682s-2.837 3.746-3.25 3.75-.75.597-.75 1.318-.809 2.184-1.799 3.25c-.989 1.067-3.77 4.864-6.179 8.439s-5.2 7.228-6.201 8.117c-1.002.89-1.821 2.352-1.821 3.25s-.337 1.636-.75 1.64-1.874 1.691-3.249 3.75-3.061 4.338-3.75 5.064c-.688.727-1.251 1.692-1.251 2.145 0 .452-1.35 2.268-3 4.034s-3 3.544-3 3.95-1.124 2.046-2.499 3.644-2.499 3.262-2.5 3.698-.927 1.785-2.059 3l-2.058 2.208 28.058.266 28.058.265v2.938c0 1.615-.401 3.971-.891 5.234s-1.886 5.672-3.103 9.797c-1.216 4.125-2.615 8.281-3.109 9.236s-.897 2.868-.897 4.25-.45 2.514-1 2.514-1 .981-1 2.179c0 2.302-1.649 8.14-3.123 11.057-.482.955-.877 2.649-.877 3.764s-.411 2.809-.914 3.764c-1.214 2.307-7.098 21.389-7.091 23 .003.695-.399 2.045-.892 3-.494.955-1.844 4.998-3 8.986l-4.206 14.5c-1.156 3.987-2.506 8.031-3 8.986-.493.955-.897 2.616-.897 3.691s-.4 2.202-.89 2.505c-.489.302-1.164 2.129-1.5 4.059l-1.219 7.009c-.336 1.925-1.011 3.5-1.5 3.5s-.891 1.35-.891 3-.45 3-1 3-1 .981-1 2.179c0 2.001-1.15 6.304-3.025 11.321-.411 1.1-1.292 4.025-1.958 6.5-.667 2.475-1.618 5.281-2.114 6.236-.497.955-.903 3.066-.903 4.691s-.45 3.233-1 3.573-1 1.716-1 3.059.45 2.441 1 2.441 1-.608 1-1.352c0-.743 1.35-2.764 3-4.491s3-3.818 3-4.648.374-1.509.831-1.509 1.47-1.237 2.25-2.75 2.207-3.622 3.169-4.689c.962-1.066 1.75-2.491 1.75-3.166 0-.676.351-1.378.78-1.562.43-.183 6.357-8.658 13.172-18.833s12.764-18.65 13.22-18.833c.455-.184.828-.992.828-1.796s1.125-2.587 2.5-3.962 2.5-2.859 2.5-3.299 1.124-2.106 2.499-3.704 2.499-3.468 2.5-4.156.421-1.25.934-1.25 1.2-.845 1.528-1.878 1.708-3.17 3.066-4.75c1.359-1.579 2.471-3.434 2.472-4.122s.396-1.25.88-1.25c.483 0 1.438-1.35 2.121-3s1.638-3 2.121-3 .879-.59.879-1.311c0-.722.9-2.278 2-3.459 1.1-1.18 2.001-2.503 2.001-2.938.001-.436 1.126-2.099 2.5-3.698S761 487.37 761 486.98s1.273-2.167 2.829-3.949 3.693-4.881 4.75-6.886 2.709-4.517 3.671-5.584 1.75-2.429 1.75-3.029.9-1.739 2-2.532 2-2.242 2-3.221c0-.978.42-1.779.933-1.779s1.217-.897 1.565-1.994 1.166-2.559 1.818-3.25c1.656-1.757 11.684-16.585 11.684-17.278 0-.313 1.09-1.659 2.422-2.991s2.713-3.337 3.068-4.455 1.064-2.032 1.577-2.032.933-.863.933-1.917.377-2.066.839-2.25c.461-.183 4.603-5.958 9.205-12.833s8.921-13.065 9.596-13.756 1.514-2.153 1.862-3.25 1.052-1.994 1.565-1.994.933-.59.933-1.311c0-.722.945-2.326 2.101-3.567 1.155-1.24 1.792-2.562 1.416-2.938s-12.572-.684-27.101-.684H776v-2.75c0-1.512.45-2.75 1-2.75s1-1.312 1-2.917.338-3.066.752-3.25c.92-.408 5.248-12.963 5.248-15.225 0-.896.868-3.537 1.928-5.869s3.326-8.514 5.035-13.739 3.541-10.281 4.072-11.236.965-2.643.965-3.75.45-2.014 1-2.014 1-1.035 1-2.3.358-2.727.796-3.25c.438-.522 1.367-2.75 2.066-4.95s1.628-4.9 2.066-6 1.337-3.8 2-6c.662-2.2 1.573-4.9 2.024-6s1.419-4.025 2.152-6.5c.732-2.475 1.86-5.544 2.506-6.82.646-1.275 2.893-7.575 4.993-14s4.174-11.83 4.608-12.013c.434-.184.789-1.62.789-3.191 0-1.572.45-3.136 1-3.476s1-1.716 1-3.059.45-2.441 1-2.441 1-1.098 1-2.441.45-2.719 1-3.059 1-1.626 1-2.859.379-2.668.842-3.191c.464-.522 1.926-4.435 3.25-8.695s2.745-7.747 3.158-7.75.75-1.103.75-2.446.45-2.719 1-3.059 1-1.69 1-3 .45-2.66 1-3c1.156-.715 1.369-4.513.25-4.473-.413.015-1.853 1.815-3.201 4M590.237 279.75l-50.262.269.262 35.74.263 35.741 24 .267 24 .267-.222 68.233c-.122 37.528-.235 71.721-.25 75.983L588 504h-74v-30.077l-27.75.288-27.75.289v33c0 36.664.614 41.949 5.894 50.745 5.523 9.2 13.168 13.412 28.745 15.84 4.229.659 27.464.895 64 .651 47.101-.314 58.345-.652 62.861-1.889 15.045-4.12 22.651-11.967 26.095-26.922.954-4.144 1.335-36.105 1.613-135.344.39-139.674.672-131.81-4.708-131.325-1.375.124-25.118.346-52.763.494m272 36 .263 35.75 31.746.264 31.745.264.255 111.236.254 111.236h58l.254-111.25.255-111.25H1051v-72H861.975zm88.383 308.668c-1.991 2.43-3.62 4.68-3.62 5s1.491.582 3.312.582c2.346 0 4.959-1.24 8.952-4.25 3.102-2.337 5.661-4.587 5.688-5 .026-.413-2.373-.75-5.332-.75-5.148 0-5.535.19-9 4.418m-476.12 8.263c-9.181 2.062-14.596 6.183-18.149 13.812-4.184 8.984-2.807 19.783 3.397 26.65 5.977 6.616 10.301 8.357 20.752 8.357 8.232 0 9.469-.266 14.5-3.117l5.5-3.117.282-10.497.283-10.497-3.783-.625c-2.08-.344-7.044-.63-11.032-.636L479 653v4.883c0 5.272.95 6.072 7.25 6.103 2.233.011 2.75.466 2.75 2.416 0 1.795-.796 2.68-3.149 3.5-4.35 1.517-6.693 1.353-11.427-.797-9.295-4.222-9.954-17.762-1.125-23.145 4.267-2.602 11.207-2.559 15.564.098 1.849 1.127 3.45 1.913 3.557 1.746s1.653-2.196 3.435-4.508l3.241-4.204-3.798-2.497c-5.62-3.694-14.41-5.349-20.798-3.914m634.218.411c-5.583 1.314-9.029 3.36-12.695 7.534-4.542 5.174-6.027 9.278-6.001 16.592.049 14.069 9.297 23.494 24.094 24.557 7.224.518 16.582-1.824 17.569-4.397.587-1.529-.947-5.775-3.142-8.699-1.271-1.692-1.582-1.71-4.406-.25-3.856 1.994-11.366 2.021-15.17.054-5.341-2.762-7.692-11.516-4.688-17.453 3.147-6.219 13.382-9.02 20.12-5.506 1.594.831 2.996 1.391 3.115 1.244s1.393-2.157 2.83-4.465l2.614-4.197-2.729-1.939c-5.36-3.81-13.469-4.969-21.511-3.075m-749.051.575c-.367.366-.667 11.166-.667 24V681h37.105l-.303-5.25-.302-5.25-12-.5-12-.5-.313-3.25-.314-3.25H393v-10.932l-10.75-.284-10.75-.284v-7l11.75-.282 11.75-.281V633h-17.333c-9.534 0-17.634.3-18 .667M402 657v24h12.942l.279-12.936.279-12.936 10.286 12.936L436.072 681H447v-48h-12l-.038 13.75-.037 13.75-3.448-4c-1.896-2.2-6.716-8.367-10.712-13.704l-7.265-9.703-5.75-.047L402 633zm107.016-23.25c.009.413-.174 8.4-.407 17.75s-.175 19.813.128 23.25l.552 6.25H545v-11h-24v-6.932l10.75-.284 10.75-.284.302-5.25.303-5.25H521v-8h24v-11h-18c-9.9 0-17.993.337-17.984.75M552 657v24h12.942l.279-13.006.279-13.006 7.5 9.64C586.324 681.754 585.468 681 591.604 681H597v-48.095l-6.25.297-6.25.298-.5 12.863-.5 12.864-7.935-10.138c-4.364-5.576-8.864-11.469-10-13.096-1.878-2.691-2.585-2.96-7.815-2.976L552 633zm54 0v24h11.922l.289-8.75.289-8.75 9.25-.288 9.25-.287v18.17l6.25-.297 6.25-.298-.02-23.5-.019-23.5-6.231-.298-6.23-.297v19.17l-9.25-.287-9.25-.288-.288-9.25-.287-9.25H606zm65.36-18.25c-1.392 3.163-3.144 7.1-3.895 8.75s-4.263 9.862-7.806 18.25L653.218 681h13.584l1.849-4.535 1.849-4.536 9.714.158 9.714.158 1.672 4.378 1.672 4.377h13.543l-3.506-8.25a3458 3458 0 0 1-8.496-20.25c-2.744-6.6-5.693-13.687-6.553-15.75l-1.563-3.75H673.89zM711 657v24h12v-15h2.97c2.578 0 3.635.987 8.03 7.5l5.061 7.5h6.969c3.834 0 6.954-.337 6.934-.75s-2.444-4.11-5.385-8.216l-5.349-7.466 4.039-3.584c3.433-3.047 4.138-4.364 4.705-8.785 1.238-9.646-2.762-15.901-11.589-18.124-2.349-.591-9.696-1.075-16.328-1.075H711zm48.449-22.727c-.269.7-.367 11.387-.219 23.75l.27 22.477 6.25.298 6.25.297V633h-6.031c-3.96 0-6.2.437-6.52 1.273m36.213-.523c-.679 1.115-19.662 46.319-19.662 46.82 0 .237 2.95.43 6.556.43h6.556l2.007-4.535 2.006-4.536 9.597.286 9.597.285 1.547 4.25 1.547 4.25h13.558l-1.874-4.75c-2.566-6.503-5.983-14.654-11.843-28.25-2.726-6.325-5.234-12.288-5.574-13.25-.502-1.423-1.827-1.75-7.09-1.75-3.559 0-6.677.337-6.928.75m56.005-.083c-.367.366-.667 11.166-.667 24V681h37v-11h-24v-6.765l7.481-.701c4.115-.386 8.84-.403 10.5-.038l3.019.663V652h-21v-8h23v-11h-17.333c-9.534 0-17.634.3-18 .667M895 656.952V681h34v-11h-20.955l-.272-18.25-.273-18.25-6.25-.298-6.25-.297zm39.708-23.225c-.241.425-.379 11.123-.306 23.773l.133 23 18.232.273 18.233.272V670h-24v-3.5c0-4.045-.504-3.879 12-3.948l9.5-.052v-10l-10.75-.284-10.75-.284v-7.869l11.75-.281 11.75-.282v-10l-17.677-.273c-9.722-.15-17.874.075-18.115.5m40.959-.06c-.367.366-.667 2.841-.667 5.5V644h14v37h13v-37h14v-11h-19.833c-10.909 0-20.134.3-20.5.667m46 0c-.367.366-.667 11.166-.667 24V681h13v-15h2.95c2.548 0 3.612.988 7.812 7.25l4.863 7.25 7.188.294c3.953.161 7.187.082 7.187-.178 0-.259-2.394-3.938-5.321-8.174l-5.321-7.704 3.916-3.652c9.152-8.538 5.622-23.797-6.27-27.101-3.927-1.091-28.3-1.356-29.337-.318M1070 657v24h13v-48h-13zm82.046-19.75c-6.537 15.083-18.046 42.578-18.046 43.111 0 .352 3.057.639 6.793.639h6.794l1.549-4.25 1.55-4.25h19.628l1.55 4.25 1.549 4.25h6.769c6.611 0 6.748-.052 5.897-2.25-2.427-6.269-13.658-33.1-16.324-39l-3.051-6.75h-12.816zM723 650.12v6.12l6.149-.444c4.874-.353 6.532-.919 8-2.731 2.37-2.928 2.336-4.58-.149-7.065-1.556-1.556-3.333-2-8-2h-6zm311-.018v6.102l6.25-.571c7.011-.641 10.312-3.168 9.172-7.022-1.017-3.439-3.46-4.611-9.613-4.611H1034zm-234.339 3.894c-1.464 3.375-2.661 6.556-2.661 7.07s2.455.934 5.456.934h5.455l-1.36-3.75a154 154 0 0 0-2.794-7.07l-1.435-3.32zm357.983.42c-1.454 3.633-2.644 6.825-2.644 7.095s2.475.489 5.5.489 5.5-.18 5.5-.401-1.285-3.413-2.856-7.095l-2.855-6.694zm-480.459.736c-1.217 3.384-2.032 6.334-1.81 6.556s2.659.266 5.414.098l5.011-.306-2.506-6.25c-1.378-3.437-2.818-6.25-3.2-6.25s-1.691 2.769-2.909 6.152"/><path fill="#fff" fill-rule="evenodd" d="M541 315.482v35.482l23.75.268 23.75.268.256 76.164.256 76.164-11.756.336c-6.466.185-23.343.179-37.506-.012l-25.75-.349v-28.835l-27.75.266-27.75.266V508c0 23.023.371 33.958 1.273 37.5 4.137 16.253 10.587 22.947 25.943 26.926 5.202 1.348 14.723 1.572 66.428 1.557 62.98-.018 68.887-.362 76.83-4.469 4.828-2.497 10.952-8.448 13.173-12.802 4.848-9.504 4.817-8.552 4.836-146.962L647 280H541zm322 .004v35.486l31.75.264 31.75.264.254 111.265.255 111.266 28.745-.266 28.746-.265.254-111.25.255-111.25H1051v-71H863zm92.418 305.364c-1.145.357-3.555 2.338-5.354 4.4l-3.271 3.75h3.541c2.443 0 5.254-1.163 9.066-3.75 3.038-2.062 5.541-4.087 5.562-4.5.045-.893-6.587-.824-9.544.1M1110 633.128c-14.14 2.298-23.021 16.94-19.102 31.493 1.433 5.322 7.99 12.717 13.083 14.755 6.518 2.608 13.981 3.072 20.106 1.252 8.568-2.548 8.732-2.763 6.151-8.076-1.217-2.504-2.555-4.545-2.975-4.537s-2.757.708-5.194 1.557c-5.71 1.988-11.319 1.07-15.325-2.509-2.533-2.264-3.129-3.662-3.508-8.231-.572-6.9 1.34-10.928 6.306-13.285 3.601-1.709 11.178-1.767 15.991-.122 1.629.557 2.558-.107 4.67-3.333l2.637-4.028-3.29-2.033c-2.521-1.558-13.288-4.582-13.936-3.914-.063.064-2.589.519-5.614 1.011m-750.499 2.098c-.302 1.251-.426 11.949-.275 23.774l.274 21.5 17.75.273 17.75.273v-5.63c0-4.911-.219-5.546-1.718-4.971-.945.363-6.345.35-12-.029L371 669.727V662h22v-10h-22v-8h24.105l-.303-5.25-.302-5.25-17.225-.274c-17.19-.272-17.226-.268-17.774 2M403 657v24h12l.007-13.75c.006-13.391.052-13.683 1.75-11.184.958 1.412 5.726 7.599 10.595 13.75L436.204 681H447v-48h-12v13.5c0 7.425-.337 13.475-.75 13.445-.696-.051-4.394-4.66-16.557-20.632-4.759-6.251-4.855-6.313-9.75-6.313H403zm64.383-21.598c-5.933 2.763-9.961 7.547-11.967 14.212-1.808 6.005-1.782 8.791.14 15.264 3.272 11.016 11.936 16.643 25.556 16.596 6.534-.022 8.447-.463 13.5-3.108l5.888-3.082V654.5l-10.75-.284-10.75-.284v8.958l4.75.305c4.35.279 4.777.537 5.066 3.055.253 2.193-.215 2.951-2.315 3.75-6.361 2.418-14.22.092-17.535-5.19-3.06-4.875-2.323-12.785 1.57-16.848 4.929-5.144 12.057-5.936 18.76-2.083 2.766 1.59 2.833 1.564 6.193-2.386 3.125-3.673 3.262-4.102 1.704-5.352-7.095-5.696-20.763-6.952-29.81-2.739M509 656.977V681h36.105l-.303-5.25-.302-5.25-9.5-.2c-5.225-.11-10.513-.222-11.75-.25-1.95-.043-2.25-.583-2.25-4.05v-4h22v-10h-22v-7.937l11.75-.281 11.75-.282v-10l-17.75-.273-17.75-.273zm44 .073v24.05l5.75-.3 5.75-.3.5-12.877.5-12.878 6.224 7.878a1811 1811 0 0 1 10.313 13.177l4.089 5.3 5.187-.3 5.187-.3v-47l-5.75-.3-5.75-.3v13.55c0 7.453-.337 13.529-.75 13.503s-5.402-6.101-11.088-13.5L562.825 633H553zm53 0v24.05l5.75-.3 5.75-.3.5-9 .5-9 9-.061 9-.06.5 9.06.5 9.061 5.75.3 5.75.3v-48.2l-5.75.3-5.75.3-.288 9.25-.287 9.25H618v-19h-12zm67.035-21.641c-.504 1.325-2.493 5.937-4.421 10.25C663.807 656.414 654 679.754 654 680.44c0 .308 2.864.56 6.364.56h6.364l1.719-4.5 1.718-4.5h19.741l1.991 4.5 1.991 4.5h6.056c3.331 0 6.056-.272 6.056-.605 0-.563-3.108-8.149-14.804-36.129l-4.696-11.234-6.275-.016c-5.716-.015-6.356.198-7.19 2.393M711 656.889V681h12v-15l3.25.03c2.921.026 3.755.787 8.234 7.5l4.983 7.47h13.763l-1.522-2.322c-.836-1.277-3.375-4.969-5.641-8.204l-4.12-5.882 3.147-2.463c6.105-4.777 7.857-14.938 3.653-21.177-4.242-6.295-7.537-7.389-23.497-7.804l-14.25-.37zm48.849-22.944c-.192.571-.22 11.414-.063 24.095l.286 23.058 5.714-.299 5.714-.299v-47l-5.651-.297c-3.282-.172-5.797.138-6 .742m36.627-.18c-.793.57-9.628 20.717-20.186 46.034-.419 1.006.986 1.231 6.245 1l6.787-.299 1.545-4.25 1.546-4.25h19.658l1.929 4.5 1.929 4.5h6.035c3.515 0 6.036-.435 6.036-1.041 0-1.614-17.329-42.629-19.313-45.709-.87-1.352-10.472-1.733-12.211-.485m55.465 1.485c-.254 9.795-.307 22.239-.139 33.023l.198 12.773 17.75-.273 17.75-.273.305-4.75c.215-3.36-.077-4.779-1-4.849-.718-.054-2.205-.196-3.305-.315s-6.19-.3-11.31-.401l-9.311-.185.311-3.75.31-3.75 10.75-.284 10.75-.284v-9.864l-10.75-.284-10.75-.284v-7l11.75-.282 11.75-.281V633h-17.5c-17.464 0-17.5.005-17.559 2.25m43.508-.977c-.269.7-.367 11.387-.219 23.75l.27 22.477h33v-10l-10.75-.284-10.75-.284V633h-5.531c-3.555 0-5.706.455-6.02 1.273M935 657v24h36.105l-.303-5.112-.302-5.112-6.5-.21c-3.575-.116-8.862-.291-11.75-.388L947 670v-8h21v-10h-21v-8h23v-11h-35zm40.862-20.771c-.804 7.271-.381 7.771 6.571 7.771h6.293l.697 9.498c.384 5.224.415 9.955.07 10.514-.346.558-.313 4.63.073 9.048l.7 8.032 5.617-.296 5.617-.296.273-18.25.272-18.25h14.06l-.303-5.25-.302-5.25-19.638-.271-19.638-.271zm46.138 20.71V681.1l5.75-.3 5.75-.3.294-7.25.294-7.25 3.206.013c2.884.012 3.695.765 8.077 7.5l4.871 7.487h6.938c4.613 0 6.719-.354 6.286-1.055-.359-.58-2.862-4.263-5.563-8.184l-4.912-7.13 3.431-2.827c1.887-1.556 3.966-4.45 4.621-6.433 1.757-5.325.739-12.907-2.149-15.999-4.674-5.003-7.415-5.752-22.644-6.187l-14.25-.407zm48.612-23.12c-.311.503-.426 11.212-.257 23.798l.309 22.883 5.668.3 5.668.3.099-20.3c.055-11.165.168-21.875.25-23.8l.151-3.5-5.662-.297c-3.114-.164-5.916.114-6.226.616m74.003 21.593c-5.286 12.327-9.893 23.149-10.238 24.049-.55 1.433.216 1.599 6.158 1.338l6.787-.299 1.545-4.25 1.546-4.25h19.699l1.991 4.5 1.991 4.5h5.953c3.343 0 5.953-.443 5.953-1.01 0-1.005-10.22-25.907-16.309-39.739l-3.191-7.249-6.138-.001-6.137-.001zM723 650.116v6.117l6.491-.413c6.917-.441 9.412-2.13 9.477-6.415.056-3.698-3.038-5.405-9.797-5.405H723zm311 0v6.117l6.491-.413c6.917-.441 9.412-2.13 9.477-6.415.056-3.698-3.038-5.405-9.797-5.405H1034zM676.844 655l-2.623 7h5.997c4.395 0 5.863-.334 5.499-1.25-3.223-8.107-5.31-12.747-5.734-12.749-.284 0-1.697 3.149-3.139 6.999m123.277-2.657c-1.171 2.663-2.401 5.926-2.734 7.25-.585 2.331-.425 2.407 5.072 2.407 6.454 0 6.397.267 2.028-9.5l-2.236-5zm358.002 0c-1.172 2.663-2.403 5.926-2.736 7.25-.585 2.331-.425 2.407 5.072 2.407 6.47 0 6.443.121 2.069-9.5l-2.274-5z"/></svg>